<svg xmlns="http://www.w3.org/2000/svg" viewBox="0 0 32 32" id="cashapp"><path d="M16.408 11.087c1.249-.314 3.757.907 5.043 1.75a1 1 0 0 0 1.256-.129l2-2a1 1 0 0 0 .182-1.166c-.919-1.779-2.556-2.718-3.627-3.165l.687-2.06A1 1 0 0 0 21 3h-4a.997.997 0 0 0-.948.684l-.75 2.25c-2.132-.035-5.235.892-6.269 4.812-.436 1.653-.253 3.153.542 4.46 1.515 2.489 4.845 3.466 6.207 3.771 1.307.292 1.915 1.127 1.874 1.493-.022.204-.492.53-1.656.53-3.491 0-5.227-1.643-5.293-1.707a.999.999 0 0 0-1.414 0l-2 2a.999.999 0 0 0-.241 1.023c.813 2.438 3.116 3.262 4.608 3.542l-.608 1.826A1 1 0 0 0 12 29h4a.997.997 0 0 0 .948-.684l.78-2.34c2.31-.156 4.186-1.058 5.334-2.58 1.161-1.54 1.489-3.607.899-5.671-.758-2.651-3.965-3.749-5.882-4.404-.273-.093-.52-.177-.725-.255-1.213-.461-1.515-.859-1.587-1.055-.021-.055-.073-.2.107-.527a.766.766 0 0 1 .534-.397zm-2.517 1.612c.455 1.238 1.79 1.869 2.754 2.235.224.085.491.177.788.278 1.547.53 4.136 1.416 4.605 3.062.416 1.455.207 2.883-.572 3.917C20.573 23.375 19.029 24 17 24a.997.997 0 0 0-.948.684L15.279 27h-1.892l.561-1.684A1 1 0 0 0 13 24c-.03 0-2.758-.022-3.806-1.78l.89-.89C11.096 22.01 13.072 23 16 23c3.145 0 3.585-1.77 3.645-2.312.178-1.613-1.295-3.188-3.427-3.665-.867-.194-3.787-.974-4.934-2.858-.509-.836-.613-1.789-.317-2.911.999-3.792 4.473-3.333 4.861-3.27.482.085.964-.199 1.12-.668L17.721 5h1.892l-.561 1.684a1.003 1.003 0 0 0 .72 1.29c.021.005 1.854.458 2.956 1.884l-.878.878c-1.281-.739-3.964-2.08-5.922-1.591a2.765 2.765 0 0 0-1.804 1.372c-.513.931-.41 1.7-.233 2.182z"></path></svg>